<svg id="course-icon" xmlns="http://www.w3.org/2000/svg" width="25.001" height="25.001" viewBox="0 0 25.001 25.001">
  <g id="Group_23" data-name="Group 23" transform="translate(8.166 6.156)">
    <g id="Group_22" data-name="Group 22">
      <path id="Path_6" data-name="Path 6" d="M176.033,130.778l-5.917-4.252a1.8,1.8,0,0,0-1.919-.248,1.732,1.732,0,0,0-.915,1.665v9a1.817,1.817,0,0,0,.915,1.665,2.451,2.451,0,0,0,.75.165,1.64,1.64,0,0,0,1.169-.5l5.917-4.252a2.022,2.022,0,0,0,.915-1.665A1.985,1.985,0,0,0,176.033,130.778Zm-1,2-5.917,4.252a.289.289,0,0,0-.165.083v-9.329c.083,0,.083.083.248.165l5.917,4.252c.083,0,.165.165.165.248A.443.443,0,0,1,175.035,132.773Z" transform="translate(-167.282 -126.098)" fill="#fff"/>
    </g>
  </g>
  <g id="Group_25" data-name="Group 25">
    <g id="Group_24" data-name="Group 24">
      <path id="Path_7" data-name="Path 7" d="M12.5,0A12.5,12.5,0,1,0,25,12.5,12.483,12.483,0,0,0,12.5,0Zm0,23.33A10.829,10.829,0,1,1,23.33,12.5,10.806,10.806,0,0,1,12.5,23.33Z" fill="#fff"/>
    </g>
  </g>
</svg>
