<svg xmlns="http://www.w3.org/2000/svg" width="25.001" height="25" viewBox="0 0 25.001 25">
  <g id="create-course-icon" transform="translate(0 -0.414)">
    <path id="Path_4" data-name="Path 4" d="M204.584.581a.57.57,0,0,0-.409-.167.594.594,0,0,0-.409.167l-8.253,8.253-.023.023-.011.011c-.011.017-.029.035-.04.052s-.006.006-.006.012-.017.029-.029.046-.006.012-.011.017-.011.029-.017.046-.006.006-.006.011l-1.47,4.432a.568.568,0,0,0,.138.588.58.58,0,0,0,.409.167.684.684,0,0,0,.185-.029l4.42-1.475c.006,0,.006,0,.011-.006a.205.205,0,0,0,.052-.023.021.021,0,0,0,.012-.006c.017-.011.04-.023.058-.035s.034-.029.052-.04.011-.006.011-.011.017-.011.023-.023l8.258-8.258a.574.574,0,0,0,0-.813Zm-8.414,9.728L197.8,11.94l-2.444.812Zm2.7,1.066-2.132-2.132,7.44-7.44,2.132,2.132Zm0,0" transform="translate(-182.696 0)" fill="#fff"/>
    <path id="Path_5" data-name="Path 5" d="M20.528,74.887a.578.578,0,0,0-.576.576V86.235a1.734,1.734,0,0,1-1.729,1.729H2.882a1.734,1.734,0,0,1-1.729-1.729V70.893a1.734,1.734,0,0,1,1.729-1.729H13.652a.576.576,0,1,0,0-1.153H2.882A2.883,2.883,0,0,0,0,70.893V86.235a2.883,2.883,0,0,0,2.882,2.882H18.223A2.883,2.883,0,0,0,21.1,86.235V75.464A.578.578,0,0,0,20.528,74.887Zm0,0" transform="translate(0 -63.703)" fill="#fff"/>
  </g>
</svg>
