<svg height="512pt" viewBox="0 0 512 512" width="512pt" xmlns="http://www.w3.org/2000/svg"><path d="m437.019531 74.980469c-48.351562-48.351563-112.640625-74.980469-181.019531-74.980469s-132.667969 26.628906-181.019531 74.980469c-48.351563 48.351562-74.980469 112.640625-74.980469 181.019531s26.628906 132.667969 74.980469 181.019531c48.351562 48.351563 112.640625 74.980469 181.019531 74.980469s132.667969-26.628906 181.019531-74.980469c48.351563-48.351562 74.980469-112.640625 74.980469-181.019531s-26.628906-132.667969-74.980469-181.019531zm-181.019531 406.496093c-124.328125 0-225.476562-101.148437-225.476562-225.476562s101.148437-225.476562 225.476562-225.476562 225.476562 101.148437 225.476562 225.476562-101.148437 225.476562-225.476562 225.476562zm0 0"/><path d="m256 54.554688c-111.078125 0-201.445312 90.367187-201.445312 201.445312s90.367187 201.445312 201.445312 201.445312 201.445312-90.367187 201.445312-201.445312-90.367187-201.445312-201.445312-201.445312zm0 372.371093c-94.246094 0-170.925781-76.679687-170.925781-170.925781s76.679687-170.925781 170.925781-170.925781 170.925781 76.679687 170.925781 170.925781-76.679687 170.925781-170.925781 170.925781zm0 0"/><path d="m315.128906 256c0-32.601562-26.527344-59.128906-59.128906-59.128906s-59.128906 26.527344-59.128906 59.128906 26.523437 59.128906 59.128906 59.128906 59.128906-26.523437 59.128906-59.128906zm-87.734375 0c0-15.773438 12.832031-28.605469 28.605469-28.605469s28.605469 12.832031 28.605469 28.605469-12.832031 28.605469-28.605469 28.605469-28.605469-12.832031-28.605469-28.605469zm0 0"/><path d="m256 126.0625c-34.707031 0-67.335938 13.519531-91.878906 38.058594-5.960938 5.960937-5.960938 15.621094 0 21.582031 2.980468 2.980469 6.886718 4.472656 10.792968 4.472656 3.902344 0 7.808594-1.492187 10.789063-4.472656 18.777344-18.777344 43.742187-29.117187 70.296875-29.117187s51.519531 10.339843 70.296875 29.117187c5.957031 5.960937 15.621094 5.960937 21.582031 0 5.957032-5.957031 5.957032-15.621094 0-21.582031-24.542968-24.539063-57.171875-38.058594-91.878906-38.058594zm0 0"/><path d="m326.296875 326.296875c-18.777344 18.777344-43.742187 29.117187-70.296875 29.117187s-51.519531-10.339843-70.296875-29.117187c-5.957031-5.960937-15.621094-5.960937-21.582031 0-5.960938 5.960937-5.960938 15.621094 0 21.582031 24.542968 24.542969 57.171875 38.058594 91.878906 38.058594s67.335938-13.519531 91.878906-38.058594c5.960938-5.960937 5.960938-15.621094 0-21.582031-5.960937-5.960937-15.621094-5.960937-21.582031 0zm0 0"/></svg>