<svg xmlns="http://www.w3.org/2000/svg" width="21.957" height="23.066" viewBox="0 0 21.957 23.066">
  <g id="logout-icon" transform="translate(-11.518 -2)">
    <path id="Path_10" data-name="Path 10" d="M30.258,46.841a.937.937,0,0,0-1.326,1.326,9.106,9.106,0,1,1-12.878,0,.937.937,0,0,0-1.326-1.326,10.98,10.98,0,1,0,15.529,0Z" transform="translate(0 -40.516)" fill="#fff"/>
    <path id="Path_11" data-name="Path 11" d="M92.769,12.144a.937.937,0,0,0,.937-.937V.937a.937.937,0,0,0-1.875,0V11.206A.937.937,0,0,0,92.769,12.144Z" transform="translate(-70.276 2)" fill="#fff"/>
  </g>
</svg>
