<svg xmlns="http://www.w3.org/2000/svg" width="26" height="21.559" viewBox="0 0 26 21.559">
  <g id="group" transform="translate(0 -43.729)">
    <g id="Group_465" data-name="Group 465" transform="translate(0 53.172)">
      <g id="Group_464" data-name="Group 464">
        <path id="Path_178" data-name="Path 178" d="M22.191,231.634H19.646a3.8,3.8,0,0,0-1,.134,3.812,3.812,0,0,0-3.4-2.088h-4.5a3.812,3.812,0,0,0-3.4,2.088,3.8,3.8,0,0,0-1-.134H3.809A3.813,3.813,0,0,0,0,235.442v4.068A2.288,2.288,0,0,0,2.285,241.8h21.43A2.288,2.288,0,0,0,26,239.511v-4.068A3.813,3.813,0,0,0,22.191,231.634ZM6.942,233.489v6.784H2.285a.763.763,0,0,1-.762-.762v-4.068a2.288,2.288,0,0,1,2.285-2.285H6.354a2.278,2.278,0,0,1,.6.08C6.946,233.32,6.942,233.4,6.942,233.489Zm10.592,6.784H8.465v-6.784a2.288,2.288,0,0,1,2.285-2.285h4.5a2.288,2.288,0,0,1,2.285,2.285Zm6.942-.762a.763.763,0,0,1-.762.762H19.058v-6.784c0-.085,0-.168-.009-.252a2.28,2.28,0,0,1,.6-.08h2.545a2.288,2.288,0,0,1,2.285,2.285Z" transform="translate(0 -229.68)" fill="#fff"/>
      </g>
    </g>
    <g id="Group_467" data-name="Group 467" transform="translate(1.697 47.932)">
      <g id="Group_466" data-name="Group 466">
        <path id="Path_179" data-name="Path 179" d="M36.8,126.5a3.384,3.384,0,1,0,3.384,3.384A3.388,3.388,0,0,0,36.8,126.5Zm0,5.245a1.861,1.861,0,1,1,1.861-1.861A1.863,1.863,0,0,1,36.8,131.749Z" transform="translate(-33.414 -126.504)" fill="#fff"/>
      </g>
    </g>
    <g id="Group_469" data-name="Group 469" transform="translate(8.479 43.729)">
      <g id="Group_468" data-name="Group 468">
        <path id="Path_180" data-name="Path 180" d="M171.483,43.729A4.521,4.521,0,1,0,176,48.25,4.527,4.527,0,0,0,171.483,43.729Zm0,7.519a3,3,0,1,1,3-3A3,3,0,0,1,171.483,51.248Z" transform="translate(-166.962 -43.729)" fill="#fff"/>
      </g>
    </g>
    <g id="Group_471" data-name="Group 471" transform="translate(17.534 47.932)">
      <g id="Group_470" data-name="Group 470">
        <path id="Path_181" data-name="Path 181" d="M348.678,126.5a3.384,3.384,0,1,0,3.384,3.384A3.388,3.388,0,0,0,348.678,126.5Zm0,5.245a1.861,1.861,0,1,1,1.861-1.861A1.863,1.863,0,0,1,348.678,131.749Z" transform="translate(-345.294 -126.504)" fill="#fff"/>
      </g>
    </g>
  </g>
</svg>
